<?xml version="1.0"?>

<!DOCTYPE svg PUBLIC '-//W3C//DTD SVG 1.0//EN' 'http://www.w3.org/TR/2001/REC-SVG-20010904/DTD/svg10.dtd'>
<svg fill-opacity="1" xmlns:xlink="http://www.w3.org/1999/xlink" color-rendering="auto" color-interpolation="auto" text-rendering="auto" stroke="black" stroke-linecap="square" stroke-miterlimit="10" shape-rendering="auto" stroke-opacity="1" fill="black" stroke-dasharray="none" font-weight="normal" stroke-width="1" xmlns="http://www.w3.org/2000/svg" font-family="&apos;Dialog&apos;" font-style="normal" stroke-linejoin="miter" font-size="12" stroke-dashoffset="0" image-rendering="auto">
  <!--Unicode Character 'JIGSAW PUZZLE PIECE' (U+1F9E9)-->
  <defs id="genericDefs" />
  <g>
    <g>
      <path d="M244.6875 298.5469 Q229.2188 323.0156 228.0938 324.4219 Q216 340.0312 204.0469 340.0312 Q200.1094 340.0312 196.3125 338.625 Q190.9688 336.6562 180.7031 321.0469 Q171.2812 306.4219 166.6406 306.4219 Q159.3281 306.4219 153.2812 312.5391 Q147.2344 318.6562 147.2344 325.9688 Q147.2344 331.5938 162.1406 340.4531 Q177.0469 349.3125 177.0469 359.0156 Q177.0469 378 139.5 391.2188 Q135.8438 392.625 128.8125 394.4531 Q128.8125 394.4531 127.4062 394.4531 Q105.75 349.0312 89.8594 349.0312 Q84.7969 349.0312 78.1875 358.0312 Q68.3438 371.3906 64.5469 374.9062 Q54.5625 383.9062 41.625 383.9062 Q28.5469 383.9062 20.25 377.1562 Q11.25 369.8438 11.25 357.0469 Q11.25 345.7969 20.9531 337.5 Q29.9531 331.4531 38.9531 325.5469 Q48.6562 318.9375 48.6562 311.7656 Q48.6562 297.9844 15.4688 277.3125 Q40.0781 231.6094 57.7969 231.6094 Q67.3594 231.6094 75.2344 243.1406 Q81.1406 253.8281 87.0469 264.6562 Q93.6562 276.1875 99.8438 276.1875 Q104.2031 276.1875 108.0703 272.25 Q111.9375 268.3125 111.9375 263.9531 Q111.9375 257.2031 102.5156 250.3125 Q93.6562 243.9844 84.7969 237.7969 Q75.375 229.5 75.375 219.5156 Q75.375 205.3125 94.5 190.125 Q100.8281 185.0625 125.8594 169.875 Q134.5781 180.7031 143.1562 191.3906 Q155.1094 204.3281 165.7969 204.3281 Q169.875 204.3281 180.8438 191.1797 Q191.8125 178.0312 201.5156 178.0312 Q212.2031 178.0312 219.2344 186.3281 Q225.9844 194.0625 225.9844 205.0312 Q225.9844 216 215.8594 224.0156 Q215.1562 224.5781 197.0156 235.2656 Q186.8906 241.1719 186.8906 247.3594 Q186.8906 255.7969 207.5625 271.4062 Q215.4375 277.4531 244.6875 298.5469 ZM150.1875 212.625 Q142.4531 209.1094 123.3281 186.0469 Q89.8594 206.5781 89.8594 219.0938 Q89.8594 226.125 104.4844 236.8125 Q121.2188 249.0469 123.75 253.9688 Q126.7031 259.5938 126.5625 261 L126.4219 263.6719 Q126 272.25 117.1406 280.4062 Q108.2812 288.5625 99.8438 288.5625 Q88.3125 288.5625 80.7188 277.5938 Q75.375 267.3281 70.0312 257.0625 Q64.2656 246.0938 57.5156 246.0938 Q46.6875 246.0938 32.4844 272.6719 Q63.1406 292.5 63.1406 311.9062 Q63.1406 321.4688 53.4375 329.4844 Q44.4375 335.8125 35.2969 342 Q25.5938 349.3125 25.5938 357.0469 Q25.5938 371.5312 44.0156 371.5312 Q49.5 371.5312 52.7344 369.2812 Q57.2344 366.0469 66.6562 353.8125 Q74.8125 342.9844 83.8125 338.625 Q85.6406 337.7812 91.125 333.5625 Q135.2812 299.9531 142.0312 258.6094 Q143.5781 247.0781 145.125 235.4062 Q146.9531 221.7656 150.1875 212.625 Z" stroke="none" />
    </g>
  </g>
</svg>
